<svg width="50" height="50" viewBox="0 0 50 50" fill="none" xmlns="http://www.w3.org/2000/svg">
<g clip-path="url(#clip0_280_321)">
<path d="M24.7084 36.0468C22.8483 37.6112 20.7196 38.2899 18.3224 38.0829C15.9252 37.8759 13.9444 36.8423 12.38 34.9822C10.8155 33.122 10.1368 30.9933 10.3439 28.5961C10.5509 26.1989 11.5845 24.2181 13.4446 22.6537C14.6723 21.6212 16.0559 20.9816 17.5952 20.735C19.1345 20.4885 20.6242 20.6171 22.0643 21.121L31.8859 12.8608C32.4998 12.3446 33.2094 12.1212 34.0149 12.1908C34.8203 12.2603 35.4805 12.602 35.9954 13.2157L37.8727 15.4479C38.389 16.0618 38.6123 16.7714 38.5428 17.5769C38.4732 18.3824 38.1316 19.0425 37.5178 19.5574L38.4565 20.6735C38.9727 21.2874 39.1961 21.997 39.1265 22.8025C39.057 23.6079 38.7153 24.2681 38.1016 24.783L35.8694 26.6603C35.2555 27.1766 34.5459 27.3999 33.7404 27.3304C32.935 27.2608 32.2748 26.9192 31.7599 26.3054L30.8213 25.1893L27.6962 27.8175C27.9457 29.3226 27.8171 30.8123 27.3102 32.2866C26.8034 33.7609 25.9361 35.0143 24.7084 36.0468ZM22.8311 33.8146C24.0588 32.7821 24.7281 31.5765 24.8389 30.1977C24.9497 28.819 24.7741 27.7039 24.3122 26.8525L31.1761 21.0798L33.9921 24.4281L36.2243 22.5508L33.4083 19.2025L35.6405 17.3252L33.7632 15.093L22.4348 24.6203C21.6759 24.02 20.6075 23.6559 19.2295 23.5279C17.8515 23.4 16.549 23.8526 15.3219 24.8859C14.0942 25.9184 13.4109 27.2394 13.2719 28.849C13.1329 30.4585 13.5796 31.8771 14.6121 33.1049C15.6447 34.3326 16.9657 35.0159 18.5753 35.1549C20.1848 35.2939 21.6034 34.8471 22.8311 33.8146ZM20.9538 31.5824C21.5677 31.0662 21.9094 30.4053 21.9789 29.5999C22.0485 28.7944 21.8251 28.0854 21.3087 27.4729C20.7925 26.8591 20.1316 26.5174 19.3261 26.4478C18.5207 26.3783 17.8117 26.6017 17.1992 27.1181C16.5854 27.6343 16.2437 28.2952 16.1741 29.1006C16.1046 29.9061 16.328 30.6151 16.8443 31.2276C17.3606 31.8414 18.0215 32.1831 18.8269 32.2527C19.6324 32.3222 20.3414 32.0988 20.9538 31.5824Z" fill="white"/>
</g>
<defs>
<clipPath id="clip0_280_321">
<rect width="35" height="35" fill="white" transform="translate(0 22.5276) rotate(-40.0643)"/>
</clipPath>
</defs>
</svg>
