<svg width="8" height="5" viewBox="0 0 8 5" fill="none" xmlns="http://www.w3.org/2000/svg">
<path d="M1.73665 0.419186L3.99999 2.68252L6.26332 0.419186C6.31733 0.36518 6.38144 0.32234 6.452 0.293112C6.52256 0.263884 6.59819 0.24884 6.67457 0.24884C6.75095 0.24884 6.82657 0.263884 6.89714 0.293112C6.9677 0.32234 7.03181 0.36518 7.08582 0.419186C7.13983 0.473192 7.18267 0.537307 7.21189 0.607869C7.24112 0.678431 7.25616 0.75406 7.25616 0.830436C7.25616 0.906812 7.24112 0.98244 7.21189 1.053C7.18267 1.12356 7.13983 1.18768 7.08582 1.24169L4.40832 3.91919C4.18082 4.14669 3.81332 4.14669 3.58582 3.91919L0.908319 1.24169C0.854242 1.18772 0.811339 1.12362 0.782067 1.05305C0.752794 0.982482 0.737727 0.906834 0.737727 0.830436C0.737727 0.754037 0.752794 0.678389 0.782067 0.607822C0.811339 0.537254 0.854242 0.473152 0.908319 0.419186C1.13582 0.197519 1.50915 0.191686 1.73665 0.419186Z" fill="#F8F8F8"/>
</svg>
