<svg width="50" height="50" viewBox="0 0 50 50" fill="none" xmlns="http://www.w3.org/2000/svg">
<path d="M18.75 6.25H31.25L35.4167 10.4167H43.75C44.3026 10.4167 44.8325 10.6362 45.2232 11.0269C45.6139 11.4176 45.8334 11.9475 45.8334 12.5V41.6667C45.8334 42.2192 45.6139 42.7491 45.2232 43.1398C44.8325 43.5305 44.3026 43.75 43.75 43.75H6.25002C5.69749 43.75 5.16758 43.5305 4.77688 43.1398C4.38618 42.7491 4.16669 42.2192 4.16669 41.6667V12.5C4.16669 11.9475 4.38618 11.4176 4.77688 11.0269C5.16758 10.6362 5.69749 10.4167 6.25002 10.4167H14.5834L18.75 6.25ZM25 39.5833C28.3152 39.5833 31.4947 38.2664 33.8389 35.9222C36.1831 33.578 37.5 30.3985 37.5 27.0833C37.5 23.7681 36.1831 20.5887 33.8389 18.2445C31.4947 15.9003 28.3152 14.5833 25 14.5833C21.6848 14.5833 18.5054 15.9003 16.1612 18.2445C13.817 20.5887 12.5 23.7681 12.5 27.0833C12.5 30.3985 13.817 33.578 16.1612 35.9222C18.5054 38.2664 21.6848 39.5833 25 39.5833ZM25 35.4167C22.7899 35.4167 20.6703 34.5387 19.1075 32.9759C17.5447 31.4131 16.6667 29.2935 16.6667 27.0833C16.6667 24.8732 17.5447 22.7536 19.1075 21.1908C20.6703 19.628 22.7899 18.75 25 18.75C27.2102 18.75 29.3298 19.628 30.8926 21.1908C32.4554 22.7536 33.3334 24.8732 33.3334 27.0833C33.3334 29.2935 32.4554 31.4131 30.8926 32.9759C29.3298 34.5387 27.2102 35.4167 25 35.4167Z" fill="#CACACA"/>
</svg>
