<svg viewBox="0 0 24 24" xmlns="http://www.w3.org/2000/svg"><path d="M14.348 20.181a.5.5 0 0 0-.385-.181h-3.93a.5.5 0 0 0-.385.181l-2.1 2.532a.5.5 0 0 0 .409.787h8.079a.5.5 0 0 0 .41-.787ZM22.5.5h-21A1.5 1.5 0 0 0 0 2v15.5A1.5 1.5 0 0 0 1.5 19h21a1.5 1.5 0 0 0 1.5-1.5V2A1.5 1.5 0 0 0 22.5.5ZM22 15a.5.5 0 0 1-.5.5h-19A.5.5 0 0 1 2 15V3a.5.5 0 0 1 .5-.5h19a.5.5 0 0 1 .5.5Z" fill="#ffffff" class="fill-000000"></path><path d="m19.654 6.372-7-2.779a.5.5 0 0 0-.369 0l-7 2.779a.5.5 0 0 0-.316.475c0 .033.024.059.031.09a.689.689 0 0 0-.031.15v3.663a.75.75 0 0 0 1.5 0V7.72L12.3 9.779a.5.5 0 0 0 .166.029.491.491 0 0 0 .166-.029l7-2.47a.5.5 0 0 0 .019-.937Z" fill="#ffffff" class="fill-000000"></path><path d="M16.3 9.545 12.469 10.9 8.635 9.545a.5.5 0 0 0-.666.472v2.5a.5.5 0 0 0 .334.471l3 1.06a3.52 3.52 0 0 0 2.328 0l3-1.06a.5.5 0 0 0 .334-.471v-2.5a.5.5 0 0 0-.666-.472Z" fill="#ffffff" class="fill-000000"></path></svg>