<svg width="27" height="31" viewBox="0 0 27 31" fill="none" xmlns="http://www.w3.org/2000/svg">
<path d="M19.4118 25.8689L19.8824 26.4262C19.9479 26.5039 19.9878 26.5962 19.9976 26.6929C20.0074 26.7896 19.9868 26.8868 19.9379 26.9737C19.889 27.0605 19.8139 27.1336 19.721 27.1846C19.6281 27.2356 19.521 27.2627 19.4118 27.2627H0.588236C0.478993 27.2627 0.371909 27.2356 0.278982 27.1846C0.186055 27.1336 0.110957 27.0605 0.0621019 26.9737C0.0132472 26.8868 -0.00743341 26.7896 0.00237716 26.6929C0.0121877 26.5962 0.0521018 26.5039 0.117647 26.4262L0.588236 25.8689V16.8068C0.588236 14.5883 1.57983 12.4607 3.34488 10.892C5.10993 9.32336 7.50385 8.44208 10 8.44208C12.4962 8.44208 14.8901 9.32336 16.6551 10.892C18.4202 12.4607 19.4118 14.5883 19.4118 16.8068V25.8689ZM7.05882 28.3083H12.9412C12.9412 29.0015 12.6313 29.6664 12.0797 30.1566C11.5281 30.6468 10.78 30.9222 10 30.9222C9.21995 30.9222 8.47185 30.6468 7.92027 30.1566C7.3687 29.6664 7.05882 29.0015 7.05882 28.3083Z" fill="#4F4F4F"/>
<circle cx="18.5" cy="8.5" r="8.5" fill="#FF00F8"/>
<path d="M15.9278 13.1559V12.1119L19.2638 8.94394C19.5438 8.67994 19.7518 8.44794 19.8878 8.24794C20.0238 8.04794 20.1118 7.86394 20.1518 7.69594C20.1998 7.51994 20.2238 7.35594 20.2238 7.20394C20.2238 6.81994 20.0918 6.52394 19.8278 6.31594C19.5638 6.09994 19.1758 5.99194 18.6638 5.99194C18.2558 5.99194 17.8838 6.06394 17.5478 6.20794C17.2198 6.35194 16.9358 6.57194 16.6958 6.86794L15.6038 6.02794C15.9318 5.58794 16.3718 5.24794 16.9238 5.00794C17.4838 4.75994 18.1078 4.63594 18.7958 4.63594C19.4038 4.63594 19.9318 4.73594 20.3798 4.93594C20.8358 5.12794 21.1838 5.40394 21.4238 5.76394C21.6718 6.12394 21.7958 6.55194 21.7958 7.04794C21.7958 7.31994 21.7598 7.59194 21.6878 7.86394C21.6158 8.12794 21.4798 8.40794 21.2798 8.70394C21.0798 8.99994 20.7878 9.33194 20.4038 9.69994L17.5358 12.4239L17.2118 11.8359H22.1198V13.1559H15.9278Z" fill="white"/>
</svg>
